<svg xmlns="http://www.w3.org/2000/svg" width="40" height="40" fill="none"><path fill="#CBE6D6" fill-rule="evenodd" d="M23.077 6.824a1.057 1.057 0 0 1 1.497-.002l2.792 2.792a4.628 4.628 0 0 0 .765 5.53 4.628 4.628 0 0 0 5.53.765l2.72 2.72a1.057 1.057 0 0 1 0 1.495L17.255 39.252a1.057 1.057 0 0 1-1.495 0l-2.85-2.85a4.626 4.626 0 0 0-1.008-5.028 4.627 4.627 0 0 0-5.028-1.007L4.02 27.514a1.057 1.057 0 0 1-.002-1.493L23.077 6.824Z" clip-rule="evenodd"/><mask id="a" width="35" height="34" x="3" y="6" mask-type="alpha" maskUnits="userSpaceOnUse"><path fill="#E7A74E" fill-rule="evenodd" d="M23.077 6.824a1.057 1.057 0 0 1 1.497-.002l2.792 2.792a4.628 4.628 0 0 0 .765 5.53 4.628 4.628 0 0 0 5.53.765l2.72 2.72a1.057 1.057 0 0 1 0 1.495L17.255 39.252a1.057 1.057 0 0 1-1.495 0l-2.85-2.85a4.626 4.626 0 0 0-1.008-5.028 4.627 4.627 0 0 0-5.028-1.007L4.02 27.514a1.057 1.057 0 0 1-.002-1.493L23.077 6.824Z" clip-rule="evenodd"/></mask><g mask="url(#a)"><path fill="#fff" d="m23.833 5.437 13.755 13.755-6.592 6.592L17.24 12.03l6.592-6.593Z"/></g><path fill="#50A773" fill-rule="evenodd" d="M18.826 13.542a.47.47 0 0 1 .666 0l.862.862a.47.47 0 0 1-.665.666l-.863-.863a.47.47 0 0 1 0-.665Zm2.588 2.587a.47.47 0 0 1 .665 0l1.725 1.725a.47.47 0 1 1-.666.665l-1.724-1.724a.47.47 0 0 1 0-.666Zm3.45 3.45a.47.47 0 0 1 .665 0l1.724 1.725a.47.47 0 0 1-.665.665l-1.725-1.725a.47.47 0 0 1 0-.665Zm3.449 3.45a.47.47 0 0 1 .665 0l.863.862a.47.47 0 1 1-.666.665l-.862-.862a.47.47 0 0 1 0-.665Z" clip-rule="evenodd"/><path fill="#fff" fill-rule="evenodd" d="M5.662 27.988a1.684 1.684 0 0 1 0-2.382l7.472-7.472a.627.627 0 0 1 .887.887L6.55 26.493a.43.43 0 0 0 0 .608l.044.044a.627.627 0 1 1-.887.887l-.044-.044ZM15.838 16.567a.627.627 0 0 1 0 .887l-.314.313a.627.627 0 0 1-.887-.886l.314-.314a.627.627 0 0 1 .887 0Z" clip-rule="evenodd"/><path fill="#50A773" d="M11.374 26.682a.285.285 0 0 1-.088-.225.315.315 0 0 1 .32-.319l11.779-.109a.302.302 0 0 1 .313.314.315.315 0 0 1-.32.318l-11.779.11a.339.339 0 0 1-.225-.089Z"/><path fill="#50A773" fill-rule="evenodd" d="M11.094 26.663a.554.554 0 0 1-.033-.203.55.55 0 0 1 .55-.55l11.779-.108a.524.524 0 0 1 .538.538.549.549 0 0 1-.55.55l-11.779.108a.56.56 0 0 1-.385-.153.512.512 0 0 1-.12-.182Zm.195-.206c-.001.09.02.158.088.225a.338.338 0 0 0 .225.088l11.779-.108a.315.315 0 0 0 .319-.32.302.302 0 0 0-.313-.312l-11.78.109a.315.315 0 0 0-.318.318Z" clip-rule="evenodd"/><path fill="#50A773" d="M16.05 23.886c-.716-.716-.727-1.912.024-2.663.752-.752 1.925-.762 2.663-.025.738.738.727 1.912-.024 2.663-.752.752-1.925.763-2.663.025Zm2.232-2.232a1.246 1.246 0 0 0-1.76.016c-.479.478-.509 1.268-.017 1.76s1.26.485 1.76-.016c.479-.478.508-1.268.017-1.76Z"/><path fill="#50A773" fill-rule="evenodd" d="M15.887 24.05c-.801-.802-.815-2.143.028-2.986.842-.842 2.16-.854 2.986-.028.826.825.814 2.143-.028 2.985-.842.842-2.16.854-2.986.028Zm2.232-2.233a1.018 1.018 0 0 0-1.437.013 1.018 1.018 0 0 0-.013 1.438c.404.404 1.027.398 1.438-.013.39-.39.414-1.036.012-1.438Zm-2.044-.594c-.752.752-.74 1.948-.025 2.663.738.738 1.912.727 2.663-.024.752-.752.763-1.925.025-2.663-.738-.738-1.911-.727-2.663.024Zm.447.448a1.246 1.246 0 0 1 1.76-.017c.492.492.462 1.282-.016 1.76-.5.502-1.268.509-1.76.017s-.462-1.282.016-1.76Z" clip-rule="evenodd"/><path fill="#50A773" d="M16.227 31.58c-.716-.716-.727-1.912.024-2.664.73-.729 1.925-.762 2.663-.024.738.737.727 1.91-.024 2.663-.752.751-1.948.74-2.663.024Zm2.232-2.233a1.246 1.246 0 0 0-1.76.016c-.479.479-.509 1.269-.017 1.76.492.492 1.26.485 1.76-.016.479-.478.486-1.29.017-1.76Z"/><path fill="#50A773" fill-rule="evenodd" d="M16.063 31.742c-.801-.801-.815-2.142.028-2.985.818-.818 2.158-.856 2.986-.028.825.826.814 2.143-.028 2.985-.844.844-2.184.83-2.986.028Zm2.232-2.232a1.018 1.018 0 0 0-1.437.013 1.018 1.018 0 0 0-.013 1.438c.404.404 1.027.398 1.437-.013.388-.388.395-1.056.013-1.438Zm-2.044-.594c-.752.752-.74 1.948-.025 2.663.716.716 1.912.727 2.663-.024.752-.752.763-1.925.025-2.663-.738-.738-1.934-.704-2.663.024Zm.447.448a1.246 1.246 0 0 1 1.76-.017c.47.47.462 1.282-.016 1.76-.501.502-1.268.509-1.76.017s-.462-1.282.016-1.76Z" clip-rule="evenodd"/><path fill="#fff" fill-rule="evenodd" d="m3.674 1.2 1.187 1.6.002.003c.115.144.29.234.474.234.125 0 .243-.059.322-.099l.011-.005.014-.007.013-.01a.585.585 0 0 0 .116-.832L4.628.485 4.626.482A.587.587 0 0 0 3.79.367a.585.585 0 0 0-.117.832ZM5.85 4.136l5.097 6.884.002.002c.116.144.291.234.474.234a.58.58 0 0 0 .358-.119l.002-.002a.585.585 0 0 0 .117-.832l-5.096-6.88-.002-.004a.587.587 0 0 0-.835-.115.585.585 0 0 0-.116.832ZM10.55 2.365l2.744 7.603.001.002a.607.607 0 0 0 .625.381l.046-.008a.84.84 0 0 1 .035-.007l.012-.002h.03l.028-.01c.289-.116.474-.463.352-.772l-2.746-7.606v-.002c-.117-.29-.466-.474-.775-.35-.289.115-.475.461-.352.77ZM8.54 13.025l1.183.874a.58.58 0 0 0 .836-.144.582.582 0 0 0-.125-.834l-1.182-.852a.587.587 0 0 0-.833.117.582.582 0 0 0 .121.839ZM3.252 9.152l3.884 2.825a.58.58 0 0 0 .357.118c.09 0 .185-.022.268-.062a.51.51 0 0 0 .213-.181.582.582 0 0 0-.128-.832L3.963 8.197a.585.585 0 0 0-.837.121.582.582 0 0 0 .126.835ZM3.537 15.655l4.688 1.225c.026.012.053.02.083.025.03.005.058.005.077.005h.003a.58.58 0 0 0 .57-.446.582.582 0 0 0-.419-.717l-4.7-1.227a.583.583 0 0 0-.72.415.582.582 0 0 0 .418.72Z" clip-rule="evenodd"/></svg>